# xmcd
#
# Track frame offsets:
#	150
#	15843
#	32153
#	51484
#	67239
#	82130
#	100493
#	117158
#	134488
#	151397
#	163310
#	179587
#
# Disc length: 2634 seconds
#
# Revision: 1
# Processed by: cddbd v1.5.2PL0 Copyright (c) Steve Scherf et al.
# Submitted via: audiograbber 1.83.01
#
DISCID=ae0a480c
DTITLE=Ladyhawke - Ladyhawke
DYEAR=2008
DGENRE=Rock
TTITLE0=Magic
TTITLE1=Manipulating Woman
TTITLE2=My Delirium
TTITLE3=Better Than Sunday
TTITLE4=Another Runaway
TTITLE5=Love Don't Live Here
TTITLE6=Back of the Van
TTITLE7=Paris Is Burning
TTITLE8=Professional Suicide
TTITLE9=Dusk Till Dawn
TTITLE10=Crazy World
TTITLE11=Morning Dreams
EXTD=
EXTT0=
EXTT1=
EXTT2=
EXTT3=
EXTT4=
EXTT5=
EXTT6=
EXTT7=
EXTT8=
EXTT9=
EXTT10=
EXTT11=
PLAYORDER=
